<svg xmlns="http://www.w3.org/2000/svg" viewBox="0 0 1200 800" role="img" aria-labelledby="title desc">
  <title id="title">Distinct technology leaf 3</title>
  <desc id="desc">A transparent-background SVG technology leaf with a unique silhouette, geometric facets, and circuit-like veins. Right-side dot nodes are removed.</desc>
  <defs>
    <linearGradient id="body-v3" x1="180" y1="590" x2="1020" y2="210" gradientUnits="userSpaceOnUse">
      <stop offset="0" stop-color="#0d302b"/>
      <stop offset="0.38" stop-color="#196047"/>
      <stop offset="0.72" stop-color="#5e9e69"/>
      <stop offset="1" stop-color="#efe1a6"/>
    </linearGradient>
    <linearGradient id="edge-v3" x1="200" y1="585" x2="1000" y2="220" gradientUnits="userSpaceOnUse">
      <stop offset="0" stop-color="#efe1a6" stop-opacity="0.14"/>
      <stop offset="0.55" stop-color="#fff0bc" stop-opacity="0.78"/>
      <stop offset="1" stop-color="#a9634a" stop-opacity="0.42"/>
    </linearGradient>
    <radialGradient id="node-v3" cx="50%" cy="50%" r="50%">
      <stop offset="0" stop-color="#fff4bf" stop-opacity="0.96"/>
      <stop offset="0.42" stop-color="#efe1a6" stop-opacity="0.42"/>
      <stop offset="1" stop-color="#efe1a6" stop-opacity="0"/>
    </radialGradient>
    <filter id="glow-v3" x="-30%" y="-30%" width="160%" height="160%">
      <feGaussianBlur stdDeviation="6" result="blur"/>
      <feMerge><feMergeNode in="blur"/><feMergeNode in="SourceGraphic"/></feMerge>
    </filter>
    <clipPath id="clip-v3">
      <path d="M165 535C355 390 615 310 1050 250C820 385 635 545 165 535Z"/>
    </clipPath>
  </defs>
  <g transform="rotate(-3 600 400)">
    <path d="M165 535C355 390 615 310 1050 250C820 385 635 545 165 535Z" fill="url(#body-v3)" opacity="0.96"/>
    <path d="M165 535C355 390 615 310 1050 250C820 385 635 545 165 535Z" fill="none" stroke="url(#edge-v3)" stroke-width="5" stroke-linejoin="round"/>
    <g clip-path="url(#clip-v3)">
      <path d="M240 528L455 425L630 450L430 560Z" fill="#efe1a6" opacity="0.25"/>
      <path d="M455 425L645 330L785 340L630 450Z" fill="#f4e8b8" opacity="0.32"/>
      <path d="M630 450L785 340L1000 262L800 465Z" fill="#196047" opacity="0.48"/>
      <path d="M430 560L630 450L800 465L610 552Z" fill="#0d302b" opacity="0.44"/>
      <path d="M320 505L485 365L455 425L240 528Z" fill="#a9634a" opacity="0.36"/>
      <path d="M710 500L885 425L1000 270L875 512Z" fill="#5e9e69" opacity="0.36"/>
      <path d="M190 535C440 492 710 365 1030 252" fill="none" stroke="#f7e6a3" stroke-width="6" stroke-linecap="round" opacity="0.76"/>
      <path d="M190 535C440 492 710 365 1030 252" fill="none" stroke="#0d302b" stroke-width="2" stroke-linecap="round" opacity="0.38"/>
      <g fill="none" stroke-linecap="round" stroke-linejoin="round">
        <path d="M430 510L500 440L585 388" stroke="#efe1a6" stroke-width="3" opacity="0.64"/>
        <path d="M570 460L660 412L745 350" stroke="#efe1a6" stroke-width="3" opacity="0.60"/>
        <path d="M680 465L795 420L920 320" stroke="#efe1a6" stroke-width="3" opacity="0.56"/>
        <path d="M520 535L625 530L735 535" stroke="#efe1a6" stroke-width="3" opacity="0.52"/>
        <path d="M355 520H430V510H500" stroke="#efe1a6" stroke-width="3" opacity="0.48"/>
        <path d="M350 522H430V492H500" stroke="#efe1a6" stroke-width="3" opacity="0.58"/>
        <path d="M520 430H590V382H650" stroke="#efe1a6" stroke-width="3" opacity="0.54"/>
      </g>
      <path d="M520 500L650 440L760 475L630 548Z" fill="#a9634a" opacity="0.18"/>
      <path d="M660 260L790 238L850 272L705 300Z" fill="#efe1a6" opacity="0.18"/>
    </g>
    <g filter="url(#glow-v3)">
      <circle cx="430" cy="492" r="16" fill="url(#node-v3)"/>
      <circle cx="575" cy="382" r="16" fill="url(#node-v3)"/>
      <circle cx="640" cy="475" r="16" fill="url(#node-v3)"/>
    </g>
    <g fill="#fff0b6" stroke="#766438" stroke-width="2">
      <circle cx="430" cy="492" r="5.5"/>
      <circle cx="575" cy="382" r="5.5"/>
      <circle cx="640" cy="475" r="5.5"/>
    </g>
    <path d="M165 535C130 555 104 596 92 640C145 620 205 585 270 532Z" fill="#0d302b" opacity="0.92"/>
    <path d="M165 535C130 555 104 596 92 640C145 620 205 585 270 532Z" fill="none" stroke="#efe1a6" stroke-width="3" opacity="0.55"/>
  </g>
</svg>
